<svg width="264" height="70" viewBox="0 0 264 70" fill="none" xmlns="http://www.w3.org/2000/svg">
<path d="M67.0551 57.0879H47.4239V54.8834C48.131 54.8634 49.0469 54.7902 50.1648 54.6636C51.2828 54.5371 52.0505 54.3639 52.4681 54.1375C53.1146 53.7446 53.5927 53.2917 53.8958 52.7855C54.1988 52.2794 54.347 51.64 54.347 50.8741V18.8265H53.8756L38.7161 56.3753H37.1469L22.7147 18.0539H22.3106V44.3607C22.3106 46.9048 22.4723 48.8429 22.7955 50.1682C23.1188 51.4935 23.6171 52.4459 24.2839 53.0253C24.7418 53.4582 25.6914 53.8711 27.1326 54.2707C28.5738 54.6703 29.5099 54.8701 29.9544 54.8901V57.0945H12V54.8901C12.9428 54.8102 13.9261 54.6503 14.9565 54.4239C15.9869 54.1975 16.7883 53.8511 17.354 53.3983C18.0813 52.8188 18.5864 51.9264 18.8558 50.7276C19.1252 49.5288 19.2599 47.5175 19.2599 44.7004V22.1498C19.2599 20.8444 19.105 19.7788 18.7885 18.953C18.4787 18.1272 18.0274 17.4545 17.4415 16.935C16.795 16.3756 16.0003 15.9627 15.0642 15.6896C14.1214 15.4232 13.1988 15.2634 12.2761 15.2234V13.019H27.4289L40.1573 46.099L51.0269 18.4269C51.4242 17.4145 51.7609 16.349 52.0438 15.2434C52.3266 14.1379 52.4748 13.3919 52.495 13.019H66.9878V15.2234C66.4019 15.2434 65.6543 15.3366 64.7452 15.5031C63.836 15.6696 63.176 15.8228 62.7585 15.9693C62.0513 16.2158 61.5665 16.6353 61.3173 17.2147C61.0681 17.7942 60.9401 18.4269 60.9401 19.1062V50.8741C60.9401 51.6001 61.0681 52.2061 61.3173 52.7056C61.5665 53.2051 62.0446 53.638 62.7585 54.011C63.1356 54.2174 63.8023 54.4106 64.7654 54.5837C65.7284 54.7569 66.4894 54.8568 67.0484 54.8768V57.0879H67.0551Z" fill="#484488"/>
<path d="M110.399 44.1076L109.55 57.0879H72.665V54.8834C73.2914 54.8435 74.1264 54.7569 75.1703 54.617C76.2142 54.4772 76.8944 54.344 77.2041 54.1974C77.8709 53.8844 78.3356 53.4848 78.5982 52.9853C78.8608 52.4858 78.9888 51.8598 78.9888 51.0939V19.4192C78.9888 18.7332 78.8743 18.1272 78.6453 17.601C78.4164 17.0749 77.9382 16.642 77.2041 16.309C76.6384 16.0426 75.8842 15.8028 74.9346 15.5964C73.985 15.3899 73.2307 15.2634 72.665 15.2234V13.019H107.052V23.6416H104.701C104.284 22.0699 103.381 20.3982 101.994 18.6267C100.607 16.8551 99.2868 15.8894 98.0342 15.7229C97.3877 15.643 96.6132 15.5764 95.7175 15.5364C94.8218 15.4965 93.7981 15.4765 92.6465 15.4765H85.6628V32.9922H90.6733C92.2829 32.9922 93.4547 32.839 94.1955 32.5393C94.9363 32.2396 95.5895 31.7401 96.1552 31.0341C96.6132 30.4347 97.0038 29.6289 97.327 28.6299C97.6503 27.6242 97.8658 26.6785 97.9668 25.7861H100.317V43.0554H97.9668C97.886 42.063 97.657 41.0107 97.2934 39.9052C96.9297 38.7996 96.5458 37.9938 96.1485 37.501C95.502 36.6951 94.7679 36.1623 93.9396 35.9159C93.1112 35.6695 92.0269 35.5429 90.6666 35.5429H85.656V48.7429C85.656 50.0683 85.7503 51.1072 85.9389 51.8731C86.1275 52.639 86.4911 53.2184 87.0366 53.6114C87.5821 54.0043 88.3229 54.2574 89.259 54.3706C90.2019 54.4838 91.5353 54.5438 93.2661 54.5438C93.953 54.5438 94.8622 54.5438 95.9936 54.5438C97.1183 54.5438 98.0678 54.5038 98.8423 54.4172C99.637 54.3373 100.459 54.1841 101.3 53.9643C102.149 53.7446 102.748 53.4515 103.099 53.0786C104.062 52.0862 105.065 50.5811 106.122 48.5631C107.173 46.5452 107.846 45.06 108.143 44.1076H110.399Z" fill="#484488"/>
<path d="M142.597 36.8751C143.533 37.9074 144.233 39.0463 144.678 40.2784C145.129 41.5105 145.351 42.9423 145.351 44.5807C145.351 48.4701 143.903 51.6802 141.001 54.211C138.098 56.7351 134.495 58.0005 130.199 58.0005C128.212 58.0005 126.232 57.6941 124.245 57.0814C122.258 56.4687 120.548 55.7294 119.107 54.8636L117.76 57.128H115.254L114.817 42.0366H117.356C117.874 43.9014 118.487 45.5797 119.187 47.0848C119.888 48.5833 120.811 49.9886 121.962 51.2939C123.046 52.5127 124.319 53.485 125.767 54.211C127.215 54.9369 128.905 55.2965 130.825 55.2965C132.266 55.2965 133.525 55.1101 134.596 54.7371C135.674 54.3642 136.542 53.838 137.209 53.152C137.876 52.4661 138.374 51.6669 138.698 50.7411C139.021 49.8154 139.182 48.7565 139.182 47.551C139.182 45.7861 138.684 44.1478 137.681 42.6227C136.677 41.0975 135.182 39.9454 133.202 39.1528C131.842 38.62 130.293 38.0273 128.535 37.3746C126.784 36.7286 125.269 36.1092 123.996 35.5365C121.491 34.4176 119.544 32.9524 118.157 31.1409C116.77 29.3294 116.076 26.9651 116.076 24.0481C116.076 22.3698 116.42 20.8113 117.106 19.3595C117.793 17.9076 118.777 16.6156 120.05 15.4767C121.262 14.3978 122.689 13.5586 124.339 12.9459C125.989 12.3332 127.713 12.0269 129.505 12.0269C131.552 12.0269 133.384 12.3399 135 12.9592C136.617 13.5786 138.098 14.3046 139.432 15.1304L140.718 13.0192H143.223L143.472 27.6444H140.933C140.475 25.9661 139.957 24.3611 139.384 22.8293C138.812 21.2975 138.064 19.9122 137.149 18.6668C136.253 17.468 135.155 16.509 133.862 15.7964C132.569 15.0838 130.98 14.7241 129.101 14.7241C127.114 14.7241 125.424 15.3568 124.03 16.6156C122.629 17.881 121.928 19.4194 121.928 21.2442C121.928 23.149 122.38 24.7274 123.275 25.9794C124.171 27.2315 125.478 28.2638 127.188 29.0697C128.71 29.7956 130.212 30.4216 131.68 30.9478C133.155 31.4739 134.576 32.04 135.957 32.6394C137.209 33.1789 138.415 33.7916 139.573 34.4709C140.731 35.1502 141.742 35.9627 142.597 36.8751Z" fill="#484488"/>
<path d="M160.672 12H157.979V57.9803H160.672V12Z" fill="#484488"/>
<path d="M179.65 23.8732H178.553V17.6195C178.553 17.1266 178.586 16.5206 178.647 15.808H178.62C178.512 16.2276 178.418 16.5273 178.337 16.7137L175.125 23.8798H174.586L171.38 16.767C171.286 16.5606 171.192 16.2409 171.098 15.8146H171.071C171.104 16.1876 171.125 16.7937 171.125 17.6395V23.8798H170.06V14.5559H171.515L174.398 21.056C174.62 21.5555 174.761 21.9285 174.829 22.1749H174.869C175.058 21.6621 175.206 21.2825 175.32 21.0294L178.263 14.5559H179.637V23.8732H179.65Z" fill="#484488"/>
<path d="M185.914 24.0264C184.58 24.0264 183.516 23.5935 182.708 22.721C181.907 21.8485 181.502 20.7164 181.502 19.3178C181.502 17.8193 181.913 16.6205 182.728 15.7281C183.543 14.8356 184.661 14.3894 186.069 14.3894C187.368 14.3894 188.412 14.8223 189.207 15.6881C190.002 16.5539 190.399 17.6861 190.399 19.0847C190.399 20.6031 189.995 21.8086 189.18 22.6944C188.365 23.5868 187.281 24.0264 185.914 24.0264ZM185.994 15.3817C185.004 15.3817 184.203 15.7347 183.59 16.4407C182.977 17.1466 182.668 18.0724 182.668 19.2245C182.668 20.3767 182.971 21.2958 183.57 21.9951C184.169 22.6944 184.957 23.0473 185.92 23.0473C186.951 23.0473 187.766 22.7143 188.358 22.0483C188.951 21.3824 189.247 20.45 189.247 19.2445C189.247 18.0124 188.958 17.06 188.378 16.3874C187.799 15.7147 187.005 15.3817 185.994 15.3817Z" fill="#484488"/>
<path d="M192.244 23.8732V14.5493H194.844C198.157 14.5493 199.814 16.0611 199.814 19.0913C199.814 20.5299 199.356 21.6887 198.433 22.5612C197.511 23.4336 196.285 23.8732 194.736 23.8732H192.244ZM193.349 15.5349V22.8809H194.749C195.982 22.8809 196.938 22.5545 197.625 21.9018C198.312 21.2492 198.655 20.3168 198.655 19.118C198.655 16.7271 197.376 15.5349 194.817 15.5349H193.349Z" fill="#484488"/>
<path d="M206.643 23.8732H201.659V14.5493H206.434V15.5349H202.764V18.6385H206.158V19.6175H202.764V22.8809H206.643V23.8732Z" fill="#484488"/>
<path d="M215.196 23.8732H213.882L212.306 21.2625C212.165 21.0227 212.024 20.8163 211.889 20.6431C211.754 20.47 211.613 20.3301 211.471 20.2235C211.33 20.117 211.175 20.0371 211.013 19.9838C210.852 19.9305 210.663 19.9105 210.461 19.9105H209.559V23.8732H208.454V14.5493H211.263C211.673 14.5493 212.051 14.6025 212.401 14.7024C212.751 14.8023 213.047 14.9622 213.303 15.1686C213.559 15.3751 213.761 15.6348 213.903 15.9478C214.044 16.2609 214.118 16.6205 214.118 17.0401C214.118 17.3664 214.071 17.6661 213.97 17.9325C213.869 18.2056 213.734 18.4453 213.552 18.6584C213.37 18.8716 213.155 19.0514 212.899 19.1979C212.643 19.3444 212.354 19.4643 212.037 19.5442V19.5709C212.192 19.6375 212.333 19.7174 212.448 19.8106C212.562 19.8972 212.677 20.0038 212.778 20.1236C212.886 20.2435 212.987 20.3834 213.088 20.5365C213.189 20.6897 213.303 20.8695 213.431 21.076L215.196 23.8732ZM209.552 15.5349V18.9182H211.047C211.323 18.9182 211.579 18.8782 211.808 18.7916C212.044 18.7117 212.246 18.5918 212.414 18.4387C212.583 18.2855 212.717 18.099 212.812 17.8726C212.906 17.6461 212.953 17.3997 212.953 17.12C212.953 16.6205 212.791 16.2342 212.468 15.9545C212.145 15.6748 211.673 15.5349 211.054 15.5349H209.552Z" fill="#484488"/>
<path d="M224.065 23.8732H222.711L217.876 16.4407C217.755 16.2542 217.654 16.0611 217.573 15.8546H217.532C217.566 16.0544 217.586 16.4806 217.586 17.1333V23.8732H216.482V14.5493H217.91L222.617 21.8619C222.812 22.1682 222.94 22.3747 222.994 22.4879H223.021C222.974 22.2215 222.954 21.762 222.954 21.116V14.5493H224.058V23.8732H224.065Z" fill="#484488"/>
<path d="M175.051 39.8504H170.067V30.5265H174.842V31.5122H171.172V34.6157H174.566V35.5947H171.172V38.8581H175.051V39.8504Z" fill="#484488"/>
<path d="M184.439 39.8504H183.085L178.25 32.4179C178.128 32.2314 178.027 32.0383 177.947 31.8318H177.906C177.94 32.0316 177.96 32.4579 177.96 33.1106V39.8438H176.856V30.5198H178.283L182.991 37.8325C183.186 38.1388 183.314 38.3453 183.368 38.4585H183.395C183.348 38.1921 183.328 37.7326 183.328 37.0865V30.5198H184.432V39.8504H184.439Z" fill="#484488"/>
<path d="M193.935 39.211C192.992 39.7372 191.941 40.0036 190.789 40.0036C189.449 40.0036 188.365 39.5773 187.537 38.7182C186.708 37.8591 186.298 36.7269 186.298 35.315C186.298 33.8698 186.755 32.6843 187.678 31.7652C188.601 30.8395 189.766 30.3799 191.173 30.3799C192.197 30.3799 193.052 30.5464 193.753 30.8728V32.0849C192.992 31.6054 192.089 31.3723 191.052 31.3723C190.002 31.3723 189.133 31.7319 188.466 32.4512C187.793 33.1705 187.456 34.1029 187.456 35.2484C187.456 36.4272 187.766 37.3529 188.392 38.0256C189.018 38.6982 189.867 39.0379 190.938 39.0379C191.672 39.0379 192.305 38.8914 192.844 38.605V35.9943H190.783V35.0086H193.941V39.211H193.935Z" fill="#484488"/>
<path d="M197.214 39.8504H196.11V30.5265H197.214V39.8504Z" fill="#484488"/>
<path d="M207.269 39.8504H205.915L201.08 32.4179C200.959 32.2314 200.858 32.0383 200.777 31.8318H200.736C200.77 32.0316 200.79 32.4579 200.79 33.1106V39.8438H199.686V30.5198H201.114L205.821 37.8325C206.016 38.1388 206.144 38.3453 206.198 38.4585H206.225C206.178 38.1921 206.158 37.7326 206.158 37.0865V30.5198H207.262V39.8504H207.269Z" fill="#484488"/>
<path d="M214.717 39.8504H209.734V30.5265H214.509V31.5122H210.838V34.6157H214.233V35.5947H210.838V38.8581H214.717V39.8504Z" fill="#484488"/>
<path d="M221.506 39.8504H216.522V30.5265H221.297V31.5122H217.627V34.6157H221.021V35.5947H217.627V38.8581H221.506V39.8504Z" fill="#484488"/>
<path d="M230.059 39.8504H228.746L227.17 37.2397C227.028 37 226.887 36.7935 226.752 36.6203C226.617 36.4472 226.476 36.3073 226.335 36.2008C226.193 36.0942 226.038 36.0143 225.877 35.961C225.715 35.9077 225.526 35.8877 225.324 35.8877H224.422V39.8504H223.317V30.5265H226.126C226.537 30.5265 226.914 30.5798 227.264 30.6797C227.614 30.7796 227.91 30.9394 228.166 31.1459C228.422 31.3523 228.624 31.6121 228.766 31.9251C228.907 32.2381 228.981 32.5977 228.981 33.0173C228.981 33.3436 228.934 33.6433 228.833 33.9097C228.732 34.1828 228.597 34.4226 228.416 34.6357C228.234 34.8488 228.018 35.0286 227.762 35.1751C227.506 35.3217 227.217 35.4415 226.9 35.5215V35.5481C227.055 35.6147 227.197 35.6946 227.311 35.7878C227.426 35.8744 227.54 35.981 227.641 36.1009C227.749 36.2207 227.85 36.3606 227.951 36.5138C228.052 36.667 228.166 36.8468 228.294 37.0532L230.059 39.8504ZM224.415 31.5122V34.8954H225.91C226.186 34.8954 226.442 34.8555 226.671 34.7689C226.907 34.689 227.109 34.5691 227.277 34.4159C227.446 34.2627 227.58 34.0762 227.675 33.8498C227.769 33.6234 227.816 33.3769 227.816 33.0972C227.816 32.5977 227.655 32.2115 227.331 31.9317C227.008 31.652 226.537 31.5122 225.917 31.5122H224.415Z" fill="#484488"/>
<path d="M232.45 39.8504H231.345V30.5265H232.45V39.8504Z" fill="#484488"/>
<path d="M242.498 39.8504H241.144L236.308 32.4179C236.187 32.2314 236.086 32.0383 236.005 31.8318H235.965C235.999 32.0316 236.019 32.4579 236.019 33.1106V39.8438H234.914V30.5198H236.342L241.05 37.8325C241.245 38.1388 241.373 38.3453 241.427 38.4585H241.454C241.407 38.1921 241.386 37.7326 241.386 37.0865V30.5198H242.491V39.8504H242.498Z" fill="#484488"/>
<path d="M251.993 39.211C251.05 39.7372 250 40.0036 248.848 40.0036C247.508 40.0036 246.424 39.5773 245.595 38.7182C244.767 37.8591 244.356 36.7269 244.356 35.315C244.356 33.8698 244.814 32.6843 245.737 31.7652C246.659 30.8395 247.825 30.3799 249.232 30.3799C250.256 30.3799 251.111 30.5464 251.811 30.8728V32.0849C251.05 31.6054 250.148 31.3723 249.111 31.3723C248.06 31.3723 247.192 31.7319 246.525 32.4512C245.851 33.1705 245.515 34.1029 245.515 35.2484C245.515 36.4272 245.824 37.3529 246.451 38.0256C247.077 38.6982 247.926 39.0379 248.996 39.0379C249.73 39.0379 250.364 38.8914 250.902 38.605V35.9943H248.841V35.0086H252V39.211H251.993Z" fill="#484488"/>
<path d="M169.629 55.448V54.1626C169.778 54.2958 169.959 54.4091 170.161 54.5156C170.37 54.6222 170.586 54.7088 170.815 54.782C171.044 54.8553 171.273 54.9086 171.508 54.9485C171.744 54.9885 171.953 55.0085 172.148 55.0085C172.828 55.0085 173.333 54.8819 173.663 54.6355C174 54.3891 174.162 54.0294 174.162 53.5566C174.162 53.3035 174.108 53.0837 173.993 52.8973C173.879 52.7108 173.731 52.5376 173.529 52.3844C173.333 52.2313 173.098 52.0847 172.828 51.9449C172.559 51.805 172.269 51.6585 171.96 51.4987C171.63 51.3322 171.327 51.1657 171.044 50.9992C170.761 50.8327 170.512 50.6462 170.303 50.4397C170.094 50.2333 169.926 50.0068 169.805 49.7471C169.683 49.4874 169.623 49.1877 169.623 48.8413C169.623 48.4151 169.717 48.0488 169.906 47.7291C170.094 47.4161 170.343 47.1564 170.646 46.9499C170.949 46.7435 171.3 46.5969 171.69 46.497C172.081 46.3971 172.478 46.3505 172.889 46.3505C173.818 46.3505 174.492 46.4637 174.916 46.6835V47.909C174.364 47.5293 173.65 47.3362 172.781 47.3362C172.539 47.3362 172.303 47.3628 172.061 47.4095C171.818 47.4561 171.609 47.5427 171.421 47.6559C171.232 47.7691 171.077 47.9156 170.963 48.0888C170.842 48.2686 170.788 48.4817 170.788 48.7414C170.788 48.9812 170.835 49.1877 170.922 49.3608C171.01 49.534 171.145 49.6938 171.32 49.8337C171.495 49.9735 171.71 50.1134 171.96 50.2533C172.209 50.3865 172.498 50.533 172.828 50.6928C173.165 50.8593 173.482 51.0325 173.785 51.2123C174.088 51.3921 174.35 51.5986 174.579 51.8183C174.808 52.0381 174.99 52.2845 175.118 52.5509C175.253 52.8173 175.32 53.1304 175.32 53.4767C175.32 53.9362 175.233 54.3225 175.051 54.6422C174.869 54.9618 174.626 55.2216 174.317 55.4214C174.007 55.6212 173.65 55.7677 173.253 55.8543C172.849 55.9409 172.424 55.9875 171.98 55.9875C171.832 55.9875 171.65 55.9742 171.428 55.9542C171.205 55.9275 170.983 55.8942 170.761 55.8476C170.532 55.801 170.316 55.7477 170.114 55.6811C169.912 55.6145 169.751 55.5346 169.629 55.448Z" fill="#484488"/>
<path d="M183.597 55.4347C182.903 55.801 182.035 55.9808 181.004 55.9808C179.664 55.9808 178.593 55.5546 177.792 54.7021C176.99 53.8496 176.586 52.7308 176.586 51.3388C176.586 49.847 177.037 48.6416 177.947 47.7225C178.849 46.8034 180.001 46.3439 181.388 46.3439C182.277 46.3439 183.018 46.4704 183.604 46.7301V47.8956C182.93 47.5227 182.189 47.3362 181.375 47.3362C180.297 47.3362 179.422 47.6958 178.748 48.4085C178.075 49.1211 177.738 50.0801 177.738 51.2722C177.738 52.4111 178.054 53.3102 178.681 53.9895C179.307 54.6621 180.129 55.0018 181.152 55.0018C182.095 55.0018 182.917 54.7953 183.604 54.3758V55.4347H183.597Z" fill="#484488"/>
<path d="M192.581 55.8277H191.476V51.5786H186.614V55.8277H185.51V46.5037H186.614V50.5929H191.476V46.5037H192.581V55.8277Z" fill="#484488"/>
<path d="M198.837 55.9808C197.504 55.9808 196.44 55.5479 195.632 54.6755C194.83 53.803 194.426 52.6708 194.426 51.2722C194.426 49.7737 194.837 48.575 195.652 47.6825C196.467 46.7901 197.585 46.3439 198.992 46.3439C200.292 46.3439 201.336 46.7768 202.13 47.6426C202.925 48.5084 203.323 49.6405 203.323 51.0458C203.323 52.5643 202.918 53.7697 202.104 54.6555C201.289 55.5413 200.198 55.9808 198.837 55.9808ZM198.911 47.3362C197.921 47.3362 197.12 47.6892 196.507 48.3951C195.894 49.1011 195.584 50.0268 195.584 51.179C195.584 52.3312 195.888 53.2502 196.487 53.9495C197.086 54.6488 197.874 55.0018 198.837 55.0018C199.868 55.0018 200.683 54.6688 201.275 54.0028C201.868 53.3368 202.164 52.4044 202.164 51.199C202.164 49.9669 201.875 49.0145 201.295 48.3419C200.716 47.6692 199.928 47.3362 198.911 47.3362Z" fill="#484488"/>
<path d="M208.959 55.9808C207.626 55.9808 206.562 55.5479 205.754 54.6755C204.952 53.803 204.548 52.6708 204.548 51.2722C204.548 49.7737 204.959 48.575 205.774 47.6825C206.589 46.7901 207.707 46.3439 209.114 46.3439C210.414 46.3439 211.458 46.7768 212.253 47.6426C213.047 48.5084 213.445 49.6405 213.445 51.0458C213.445 52.5643 213.04 53.7697 212.226 54.6555C211.411 55.5413 210.32 55.9808 208.959 55.9808ZM209.04 47.3362C208.05 47.3362 207.249 47.6892 206.636 48.3951C206.023 49.1011 205.713 50.0268 205.713 51.179C205.713 52.3312 206.016 53.2502 206.616 53.9495C207.215 54.6488 208.003 55.0018 208.966 55.0018C209.996 55.0018 210.811 54.6688 211.404 54.0028C211.997 53.3368 212.293 52.4044 212.293 51.199C212.293 49.9669 212.003 49.0145 211.424 48.3419C210.845 47.6692 210.05 47.3362 209.04 47.3362Z" fill="#484488"/>
<path d="M220.172 55.8277H215.297V46.5037H216.401V54.8353H220.179V55.8277H220.172Z" fill="#484488"/>
</svg>
